P1
# Frame 7
21 24
0 0 0 0 0 0 0 0 0 0 0 0 0 0 0 0 0 0 0 0 0 
0 0 0 0 0 0 0 0 0 0 0 0 0 0 0 0 0 0 0 0 0 
0 0 1 0 1 1 1 1 1 1 1 1 1 1 1 1 1 0 0 0 0 
0 0 1 0 1 0 0 0 0 0 0 0 0 0 0 0 1 0 0 0 0 
0 0 0 0 1 0 0 1 1 1 0 0 0 1 1 0 1 1 1 0 0 
0 0 1 0 1 0 0 0 1 0 0 0 0 0 0 0 1 0 0 0 0 
0 0 1 0 1 0 0 1 1 0 0 1 1 1 0 0 1 0 0 0 0 
0 0 1 0 1 0 0 1 1 0 0 1 1 1 1 0 1 0 0 0 0 
0 0 1 0 1 0 0 1 1 1 0 0 1 0 0 0 1 0 0 0 0 
0 0 1 0 1 0 0 0 1 0 0 0 0 0 0 0 1 0 0 0 0 
0 0 0 0 1 0 0 1 1 0 0 0 1 0 0 0 1 0 0 0 0 
0 0 1 1 1 0 0 1 1 0 0 0 1 0 1 0 1 0 0 0 0 
0 0 1 1 1 0 0 1 1 0 0 0 0 0 1 0 1 0 0 0 0 
0 0 0 0 1 0 0 1 1 0 0 0 1 0 0 0 1 0 0 0 0 
0 0 0 0 1 0 0 0 1 0 0 1 1 1 0 0 1 0 0 0 0 
0 0 1 0 1 0 0 0 1 0 0 1 1 1 0 0 1 0 0 0 0 
0 0 1 0 1 0 0 0 1 0 0 1 1 1 0 0 1 0 0 0 0 
0 0 0 0 1 0 0 0 1 0 0 0 0 0 0 0 1 0 0 0 0 
0 0 1 0 1 0 0 1 1 1 0 0 0 1 0 0 1 0 0 0 0 
0 0 0 0 1 0 0 1 1 0 0 1 0 0 1 0 1 0 1 0 0 
0 0 0 0 1 0 0 0 0 0 0 0 0 0 0 0 1 0 1 0 0 
0 0 1 0 1 1 1 1 1 1 1 1 1 1 1 1 1 0 1 0 0 
0 0 0 0 0 0 0 0 0 0 0 0 0 0 0 0 0 0 0 0 0 
0 0 0 0 0 0 0 0 0 0 0 0 0 0 0 0 0 0 0 0 0 
